<svg width="85" height="49" viewBox="0 0 85 49" fill="none" xmlns="http://www.w3.org/2000/svg">
<rect x="0.500492" y="-0.500492" width="70.4026" height="29.6959" rx="8.50837" transform="matrix(1 0 0 -1 13.4714 47.7612)" fill="#E638EA" stroke="black" stroke-width="1.00098"/>
<rect x="0.333661" y="-0.333661" width="48.3809" height="20.3533" rx="4.67126" transform="matrix(1 0 0 -1 0.125 26.0734)" fill="#FCCE59" stroke="black" stroke-width="0.667323"/>
<mask id="path-3-inside-1_556_4304" fill="white">
<path fill-rule="evenodd" clip-rule="evenodd" d="M49.1732 18.0652H22.4803C17.6166 18.0652 13.653 21.9196 13.4775 26.7405H44.1683C46.9325 26.7405 49.1732 24.4997 49.1732 21.7356V18.0652Z"/>
</mask>
<path fill-rule="evenodd" clip-rule="evenodd" d="M49.1732 18.0652H22.4803C17.6166 18.0652 13.653 21.9196 13.4775 26.7405H44.1683C46.9325 26.7405 49.1732 24.4997 49.1732 21.7356V18.0652Z" fill="#59FCFC"/>
<path d="M49.1732 18.0652V17.3979H49.8406V18.0652H49.1732ZM13.4775 26.7405V27.4078H12.7855L12.8107 26.7162L13.4775 26.7405ZM49.1732 18.7325H22.4803V17.3979H49.1732V18.7325ZM22.4803 18.7325C17.977 18.7325 14.3069 22.3014 14.1444 26.7648L12.8107 26.7162C12.9992 21.5377 17.2561 17.3979 22.4803 17.3979V18.7325ZM13.4775 26.0732H44.1683V27.4078H13.4775V26.0732ZM44.1683 26.0732C46.5639 26.0732 48.5059 24.1311 48.5059 21.7356H49.8406C49.8406 24.8683 47.301 27.4078 44.1683 27.4078V26.0732ZM48.5059 21.7356V18.0652H49.8406V21.7356H48.5059Z" fill="black" mask="url(#path-3-inside-1_556_4304)"/>
<rect x="0.333661" y="-0.333661" width="26.6929" height="11.0585" rx="2.4582" transform="matrix(1 0 0 -1 41.499 11.0585)" fill="#B982FF" stroke="black" stroke-width="0.667323"/>
<mask id="path-6-inside-2_556_4304" fill="white">
<path fill-rule="evenodd" clip-rule="evenodd" d="M49.1732 11.7258V10.7249C49.1732 7.96074 46.9324 5.71996 44.1683 5.71996H41.499V8.93397C41.499 10.4759 42.749 11.7258 44.2909 11.7258H49.1732Z"/>
</mask>
<path fill-rule="evenodd" clip-rule="evenodd" d="M49.1732 11.7258V10.7249C49.1732 7.96074 46.9324 5.71996 44.1683 5.71996H41.499V8.93397C41.499 10.4759 42.749 11.7258 44.2909 11.7258H49.1732Z" fill="#84FF82"/>
<path d="M49.1732 11.7258H49.8406V12.3932H49.1732V11.7258ZM41.499 5.71996H40.8317V5.05264H41.499V5.71996ZM48.5059 11.7258V10.7249H49.8406V11.7258H48.5059ZM48.5059 10.7249C48.5059 8.32929 46.5639 6.38729 44.1683 6.38729V5.05264C47.301 5.05264 49.8406 7.59218 49.8406 10.7249H48.5059ZM44.1683 6.38729H41.499V5.05264H44.1683V6.38729ZM42.1663 5.71996V8.93397H40.8317V5.71996H42.1663ZM42.1663 8.93397C42.1663 10.1073 43.1175 11.0585 44.2909 11.0585V12.3932C42.3804 12.3932 40.8317 10.8444 40.8317 8.93397H42.1663ZM44.2909 11.0585H49.1732V12.3932H44.2909V11.0585Z" fill="black" mask="url(#path-6-inside-2_556_4304)"/>
</svg>
