<svg width="14" height="14" viewBox="0 0 14 14" fill="none" xmlns="http://www.w3.org/2000/svg">
<path fill-rule="evenodd" clip-rule="evenodd" d="M14 4.99408C14 7.75223 11.7613 9.98816 9 9.98816C8.05859 9.98816 7.17813 9.72831 6.42617 9.2765L1.69707 14L0 12.305L4.725 7.58554C4.26504 6.83008 4 5.94295 4 4.99408C4 2.23592 6.23867 0 9 0C11.7613 0 14 2.23592 14 4.99408ZM12 4.99408C12 6.64895 10.6568 7.99052 9 7.99052C7.34316 7.99052 6 6.64895 6 4.99408C6 3.3392 7.34316 1.99763 9 1.99763C10.6568 1.99763 12 3.3392 12 4.99408Z" fill="#A6A6A6"/>
</svg>
